# xmcd
# 
# Track frame offsets:
#     150
#     12667
#     26779
#     42284
#     55413
#     70979
#     87154
#     102020
#     116763
#     131965
#     146227
#     160901
#     176559
#     192493
#     206520
#     222249
#     237206
#     252596
#     267389
#     299064
# 
# Disc length: 4197
# 
# Revision: 2
# Processed by: cddbd v1.5.2PL0 Copyright (c) Steve Scherf et al.
# Submitted via: fre:ac v1.0.17
# 
DISCID=45106314
DTITLE=Loouis Armstrong - Presenting... Louis Armstrong
DYEAR=2002
DGENRE=Blues
TTITLE0=(Yes) I'm In The Barrel
TTITLE1=Gut Bucket Bues
TTITLE2=Cornet Chop Suey
TTITLE3=Muskrat Ramble
TTITLE4=I Want A Big Butter And Egg Man
TTITLE5=Wild Man Blues
TTITLE6=Potato Head Blues
TTITLE7=SOI Blues
TTITLE8=Weary Blues
TTITLE9=Swing That Music
TTITLE10=Struttin' With Some Barbeque
TTITLE11=West End Blues
TTITLE12=I'm Confessin'
TTITLE13=Sweethearts On Parade
TTITLE14=When It's Sleepy Time Down South
TTITLE15=Jack-Armstrong Blues
TTITLE16=A Kiss To Build A Dream On
TTITLE17=I Want A Little Girl
TTITLE18=Our Monday Date
TTITLE19=Someday You'll Be Sorry
EXTD=
EXTT0=
EXTT1=
EXTT2=
EXTT3=
EXTT4=
EXTT5=
EXTT6=
EXTT7=
EXTT8=
EXTT9=
EXTT10=
EXTT11=
EXTT12=
EXTT13=
EXTT14=
EXTT15=
EXTT16=
EXTT17=
EXTT18=
EXTT19=
PLAYORDER=
